<?xml version="1.0" standalone="no"?>
<!DOCTYPE svg PUBLIC "-//W3C//DTD SVG 20010904//EN"
 "http://www.w3.org/TR/2001/REC-SVG-20010904/DTD/svg10.dtd">
<svg version="1.0" xmlns="http://www.w3.org/2000/svg"
 width="5000.000000pt" height="5000.000000pt" viewBox="0 0 5000.000000 5000.000000"
 preserveAspectRatio="xMidYMid meet">

<g transform="translate(0.000000,5000.000000) scale(0.100000,-0.100000)"
fill="#000000" stroke="none">
<path d="M15480 36391 l0 -3341 1700 0 1700 0 0 1726 0 1726 1548 -5 c1444 -5
1693 -9 2217 -37 3261 -176 5745 -975 7470 -2404 273 -226 644 -587 904 -878
l114 -128 2018 0 2019 0 -29 53 c-16 28 -68 124 -116 212 -828 1513 -1847
2789 -2989 3739 -318 265 -545 434 -877 655 -358 239 -677 423 -1049 605 -399
195 -745 335 -1215 492 -1447 483 -3215 772 -5370 879 -760 37 -817 38 -4447
42 l-3598 4 0 -3340z"/>
<path d="M12000 17077 l0 -10257 4283 0 c4083 0 5437 7 6352 30 3651 93 6159
386 7750 907 262 86 843 300 865 320 2 2 -1271 1279 -2830 2838 -2261 2261
-2838 2833 -2855 2830 -34 -8 -458 -53 -700 -74 -433 -39 -782 -61 -1455 -92
-160 -8 -991 -13 -2387 -16 l-2143 -4 0 3448 0 3448 -3440 3440 -3440 3440 0
-10258z"/>
<path d="M35418 16592 c-756 -1529 -1677 -2759 -2858 -3818 -685 -613 -1362
-1088 -2134 -1499 l-109 -57 1204 -1204 c662 -662 1207 -1204 1210 -1204 3 0
102 58 220 128 1224 734 2426 1727 3406 2815 1023 1135 1920 2507 2606 3987
158 342 442 1007 472 1108 l6 22 -1943 0 -1943 0 -137 -278z"/>
</g>
</svg>
